# xmcd
#
# Track frame offsets:
#	150
#	10924
#	25467
#	35690
#	48305
#	60939
#	76516
#	87630
#	98078
#	113115
#	124632
#	135393
#	150645
#	163968
#	172993
#	184269
#	195723
#	207720
#	220699
#	233325
#	245514
#	254843
#	266396
#
# Disc length: 3717 seconds
#
# Revision: 1
# Processed by: cddbd v1.5.1PL0 Copyright (c) Steve Scherf et al.
# Submitted via: audiograbber 1.82.02
#
DISCID=370e8317
DTITLE=Don Covay - Mercy and See-Saw
DYEAR=1965
DGENRE=Soul
TTITLE0=Mercy,Mercy
TTITLE1=I`ll Be Satisfied
TTITLE2=Come On In
TTITLE3=Can`t Stay Away
TTITLE4=Can`t Fight It Baby
TTITLE5=You`re Good For Me
TTITLE6=Take This Hurt Off Me
TTITLE7=Daddy Loves Baby
TTITLE8=Come See About Me
TTITLE9=You Must Believe In Me
TTITLE10=Please Don`t Let Me Know
TTITLE11=Just Because
TTITLE12=See-Saw
TTITLE13=The Boomerang
TTITLE14=Everything Gonna Be Everthing
TTITLE15=Fat Man
TTITLE16=Precious You
TTITLE17=Iron Out The Rough Spots
TTITLE18=Please Do Something
TTITLE19=I Never Get Enough Of Your Love
TTITLE20=The Usual Place
TTITLE21=A Woman`s Love
TTITLE22=Sookie Sookie
EXTD=
EXTT0=
EXTT1=
EXTT2=
EXTT3=
EXTT4=
EXTT5=
EXTT6=
EXTT7=
EXTT8=
EXTT9=
EXTT10=
EXTT11=
EXTT12=
EXTT13=
EXTT14=
EXTT15=
EXTT16=
EXTT17=
EXTT18=
EXTT19=
EXTT20=
EXTT21=
EXTT22=
PLAYORDER=
